# xmcd
#
# Track frame offsets:
#	150
#	17772
#	32175
#	42615
#	56610
#	70255
#	81850
#	93252
#	102692
#	113797
#	125660
#	136020
#	150480
#	163830
#	173662
#	185972
#	202665
#	216977
#	234885
#	249490
#	262790
#
# Disc length: 3642 seconds
#
# Revision: 1
# Processed by: cddbd v1.5.1PL2 Copyright (c) Steve Scherf et al.
# Submitted via: audiograbber 1.83.01
#
DISCID=220e3815
DTITLE=Engelbert Humperdinck - Tom Jones - Romantically Yours [CD2]
DYEAR=1900
DGENRE=Romantic
TTITLE0=Engelbert Humperdinck - After the Lovin'
TTITLE1=Engelbert Humperdinck - What Now My Love
TTITLE2=Engelbert Humperdinck - Everybody Knows (We're Through)
TTITLE3=Engelbert Humperdinck - My World (Il Mondo)
TTITLE4=Engelbert Humperdinck - There's a Kind of Hush (All Over the World)
TTITLE5=Engelbert Humperdinck - Three Little Words (I Love You)
TTITLE6=Engelbert Humperdinck - Two Different Worlds
TTITLE7=Engelbert Humperdinck - Misty Blue
TTITLE8=Engelbert Humperdinck - Take My Heart
TTITLE9=Engelbert Humperdinck - Ten Guitars
TTITLE10=Engelbert Humperdinck - Walk Through This World
TTITLE11=Tom Jones - Love Me Tonight
TTITLE12=Tom Jones - A Minute of Your Time
TTITLE13=Tom Jones - Not Responsible
TTITLE14=Tom Jones - With These Hands
TTITLE15=Tom Jones - I Can't Stop Loving You
TTITLE16=Tom Jones - Darlin'
TTITLE17=Tom Jones - I Know
TTITLE18=Tom Jones - But I Do
TTITLE19=Tom Jones - The One I Sing My Love Songs To
TTITLE20=Tom Jones - I Wake Up Crying
EXTD=Reader's Digest Compilation
EXTT0=
EXTT1=
EXTT2=
EXTT3=
EXTT4=
EXTT5=
EXTT6=
EXTT7=
EXTT8=
EXTT9=
EXTT10=
EXTT11=
EXTT12=
EXTT13=
EXTT14=
EXTT15=
EXTT16=
EXTT17=
EXTT18=
EXTT19=
EXTT20=
PLAYORDER=
